<svg width="113" height="29" viewBox="0 0 113 29" fill="none" xmlns="http://www.w3.org/2000/svg">
<path d="M98.5 28.5H14.5C6.76802 28.5 0.5 22.232 0.5 14.5C0.5 6.76801 6.76801 0.5 14.5 0.5H96.6802C97.4091 0.5 98 1.0909 98 1.8198C98 1.97258 98.0151 2.12496 98.045 2.27474L98.5353 2.1767L98.0451 2.27476L98.2768 3.43365C98.4519 4.30924 98.9677 5.0794 99.7107 5.57471C100.107 5.83893 100.555 6.01605 101.025 6.09435L102.652 6.36563C103.235 6.46281 103.833 6.41589 104.394 6.22895L105.144 5.979C105.824 5.75235 106.572 6.00884 106.969 6.60519C107.064 6.74709 107.172 6.87928 107.293 6.99985L107.932 7.63892C108.098 7.80494 108.28 7.95416 108.475 8.0844L109.224 8.58383C109.667 8.87902 110.221 8.95324 110.726 8.78496C111.06 8.67371 111.364 8.82063 111.469 9.07332C111.943 10.2135 112.5 12.1517 112.5 14.5C112.5 22.232 106.232 28.5 98.5 28.5Z" fill="#EB5156" stroke="#EB5156"/>
</svg>
